<svg width="80" height="80" viewBox="0 0 80 80" fill="none" xmlns="http://www.w3.org/2000/svg">
<g clip-path="url(#clip0_889_761)">
<path d="M75.677 40C75.677 36.9172 75.284 33.8675 74.5076 30.9122L79.0232 27.5902L70.2587 12.4097L65.1161 14.6628C60.7195 10.2975 55.3357 7.18672 49.3834 5.57219L48.7645 0H31.2354L30.6164 5.57219C24.6639 7.18672 19.2803 10.2975 14.8837 14.6628L9.74122 12.4097L0.976685 27.5902L5.49231 30.9122C4.71575 33.8675 4.32293 36.9172 4.32293 40C4.32293 43.0828 4.7159 46.1325 5.49231 49.0878L0.976685 52.4097L9.74122 67.5902L14.8837 65.337C19.2804 69.7025 24.664 72.8133 30.6164 74.4277L31.2354 80H48.7645L49.3836 74.4277C55.3361 72.8133 60.7197 69.7023 65.1162 65.337L70.2587 67.5902L79.0232 52.4097L74.5076 49.0878C75.284 46.1325 75.677 43.0828 75.677 40ZM46.7282 70.2552L45.0906 70.6177L44.5689 75.3125H35.4311L34.9093 70.6177L33.2717 70.2552C27.0625 68.8809 21.4932 65.6631 17.1664 60.9497L16.0336 59.7156L11.7029 61.613L7.13403 53.6994L10.9348 50.9034L10.4323 49.3053C9.48887 46.3042 9.01044 43.1734 9.01044 40C9.01044 36.8264 9.48887 33.6956 10.4323 30.6947L10.9348 29.0966L7.13403 26.3006L11.7029 18.387L16.0336 20.2844L17.1664 19.0503C21.4932 14.3369 27.0625 11.1191 33.2717 9.74484L34.9093 9.38234L35.4311 4.6875H44.5689L45.0906 9.38234L46.7282 9.74484C52.9375 11.1192 58.5067 14.337 62.8336 19.0503L63.9664 20.2844L68.297 18.387L72.8659 26.3006L69.0651 29.0966L69.5676 30.6947C70.5111 33.6958 70.9895 36.8266 70.9895 40C70.9895 43.1734 70.5112 46.3042 69.5676 49.3053L69.0651 50.9034L72.8659 53.6994L68.297 61.613L63.9664 59.7156L62.8336 60.9497C58.5067 65.6631 52.9376 68.8809 46.7282 70.2552Z" fill="#3D5AFE"/>
<path d="M30.6951 34.6344L27.3461 31.3547L18.7738 40.1077L27.5269 48.68L30.8066 45.331L25.4026 40.0385L30.6951 34.6344Z" fill="#3D5AFE"/>
<path d="M49.305 34.6344L54.5975 40.0385L49.1935 45.331L52.4732 48.68L61.2263 40.1077L52.6539 31.3547L49.305 34.6344Z" fill="#3D5AFE"/>
<path d="M34.3901 55.34L41.0565 23.6588L45.6457 24.6244L38.9794 56.3056L34.3901 55.34Z" fill="#3D5AFE"/>
</g>
<defs>
<clipPath id="clip0_889_761">
<rect width="80" height="80" fill="white"/>
</clipPath>
</defs>
</svg>
