<svg width="40" height="16" viewBox="0 0 40 16" fill="none" xmlns="http://www.w3.org/2000/svg">
<path fill-rule="evenodd" clip-rule="evenodd" d="M31.2929 14.2929C30.9024 14.6834 30.9024 15.3166 31.2929 15.7071C31.6834 16.0976 32.3166 16.0976 32.7071 15.7071L39.7071 8.70711C40.0976 8.31658 40.0976 7.68342 39.7071 7.29289L32.7071 0.292893C32.3166 -0.0976321 31.6834 -0.0976322 31.2929 0.292893C30.9024 0.683417 30.9024 1.31658 31.2929 1.70711L36.5858 7L1 7C0.447717 7 7.47665e-07 7.44771 6.99382e-07 8C6.511e-07 8.55228 0.447716 9 1 9L36.5858 9L31.2929 14.2929Z" fill="#3D5AFE"/>
</svg>
