<svg width="73" height="32" viewBox="0 0 73 32" fill="none" xmlns="http://www.w3.org/2000/svg">
<path d="M5.336 31.788C3.368 31.788 2.012 31.2 1.268 30.024C0.548 28.848 0.188 27.096 0.188 24.768V5.148H6.524V23.508C6.524 23.676 6.524 24.132 6.524 24.876C6.524 25.596 6.632 26.112 6.848 26.424C7.088 26.712 7.448 26.856 7.928 26.856C8.576 26.856 8.984 26.592 9.152 26.064C9.32 25.512 9.404 24.732 9.404 23.724V23.508L9.44 5.148H15.704V31.5H9.404V28.692C8.972 29.796 8.468 30.588 7.892 31.068C7.316 31.548 6.464 31.788 5.336 31.788ZM18.2248 5.148H24.5248V8.064C24.8368 7.032 25.3768 6.24 26.1448 5.688C26.9368 5.112 27.9088 4.824 29.0608 4.824V10.08C28.1728 10.08 27.1888 10.212 26.1088 10.476C25.0528 10.716 24.5248 11.004 24.5248 11.34V31.5H18.2248V5.148ZM30.5998 0.395999H37.0798V7.74C37.7518 5.82 39.0358 4.86 40.9318 4.86C42.7078 4.86 44.0518 5.424 44.9638 6.552C45.8758 7.68 46.3318 9.228 46.3318 11.196V31.5H40.0318V11.592C40.0318 11.016 39.8998 10.548 39.6358 10.188C39.3718 9.828 38.9878 9.648 38.4838 9.648C38.0518 9.648 37.7038 9.84 37.4398 10.224C37.1998 10.584 37.0798 11.028 37.0798 11.556V31.5H30.5998V0.395999ZM56.4436 31.788C51.1876 31.788 48.5596 29.064 48.5596 23.616V13.032C48.5596 10.536 49.2556 8.556 50.6476 7.092C52.0636 5.604 53.9956 4.86 56.4436 4.86C58.8916 4.86 60.8116 5.604 62.2036 7.092C63.6196 8.556 64.3276 10.536 64.3276 13.032V23.616C64.3276 29.064 61.6996 31.788 56.4436 31.788ZM56.4436 26.928C56.9476 26.928 57.3196 26.748 57.5596 26.388C57.7996 26.028 57.9196 25.536 57.9196 24.912V12.024C57.9196 10.488 57.4276 9.72 56.4436 9.72C55.4596 9.72 54.9676 10.488 54.9676 12.024V24.912C54.9676 25.536 55.0876 26.028 55.3276 26.388C55.5676 26.748 55.9396 26.928 56.4436 26.928ZM66.3822 31.5V26.244H72.6822V31.5H66.3822Z" fill="white"/>
</svg>
