<svg width="80" height="76" viewBox="0 0 80 76" fill="none" xmlns="http://www.w3.org/2000/svg">
<path d="M80 61.4375V0.5H0V61.4375H30.4688V70.8125H25.7812V75.5H54.2188V70.8125H49.5312V61.4375H80ZM4.6875 56.75V50.5H51.875V45.8125H22.2208L34.7656 33.2677L41.7969 40.2989L61.25 20.8458V26.5938H65.9375V12.5312H51.875V17.2188H58.248L41.7969 33.6698L34.7656 26.6386L15.5917 45.8125H4.6875V5.1875H75.3125V56.75C73.4402 56.75 6.57234 56.75 4.6875 56.75ZM44.8438 70.8125H35.1562V61.4375H44.8438V70.8125Z" fill="#3D5AFE"/>
<path d="M56.5625 45.8125H61.25V50.5H56.5625V45.8125Z" fill="#3D5AFE"/>
<path d="M65.9375 45.8125H70.625V50.5H65.9375V45.8125Z" fill="#3D5AFE"/>
</svg>
